# xmcd
#
# Track frame offsets:
#	150
#	16337
#	33133
#	48030
#	61118
#	81778
#	97214
#	110726
#	126662
#	140208
#	155284
#	170672
#
# Disc length: 2468 seconds
# Revision: 0
# Processed by: cddbd v1.5.2PL0 Copyright (c) Steve Scherf et al.
# Submitted via: dBpowerAMP V12.0
#
DISCID=a209a20c
DTITLE=Uncle Daddy - Uncle Daddy
DYEAR=2009
DGENRE=Country
TTITLE0=The Deal
TTITLE1=Channel 13
TTITLE2=True Colors
TTITLE3=Proud Hillbilly
TTITLE4=Half Way There
TTITLE5=Over The Line
TTITLE6=Southern Man
TTITLE7=Cowboy
TTITLE8=Long Gone
TTITLE9=Call It Country
TTITLE10=Lil' Somethin
TTITLE11=Back of the Van
EXTD=
EXTT0=
EXTT1=
EXTT2=
EXTT3=
EXTT4=
EXTT5=
EXTT6=
EXTT7=
EXTT8=
EXTT9=
EXTT10=
EXTT11=
PLAYORDER=
